<svg width="39" height="34" viewBox="0 0 39 34" fill="none" xmlns="http://www.w3.org/2000/svg">
<path fill-rule="evenodd" clip-rule="evenodd" d="M9.21819 7.87525C9.36508 7.44079 9.66125 7.06063 10.0632 6.79061C10.4651 6.52058 10.9516 6.37491 11.4513 6.375H14.7028C15.0126 6.375 15.3097 6.26306 15.5287 6.0638C15.7477 5.86454 15.8708 5.59429 15.8708 5.3125C15.8708 5.03071 15.7477 4.76046 15.5287 4.5612C15.3097 4.36194 15.0126 4.25 14.7028 4.25H11.4513C10.452 4.24982 9.47894 4.54116 8.67507 5.08121C7.87121 5.62127 7.27888 6.38158 6.98509 7.2505L3.23055 18.3543C3.09346 18.7591 3.02365 19.1803 3.02344 19.6038V25.5C3.02344 26.6272 3.51564 27.7082 4.39176 28.5052C5.26789 29.3022 6.45617 29.75 7.69519 29.75H31.054C32.293 29.75 33.4813 29.3022 34.3574 28.5052C35.2335 27.7082 35.7257 26.6272 35.7257 25.5V19.6038C35.7257 19.1803 35.6557 18.7595 35.5186 18.3543L31.7625 7.2505C31.4688 6.38182 30.8767 5.62167 30.0732 5.08163C29.2696 4.5416 28.2969 4.25013 27.2979 4.25H24.0463C23.7366 4.25 23.4395 4.36194 23.2205 4.5612C23.0015 4.76046 22.8784 5.03071 22.8784 5.3125C22.8784 5.59429 23.0015 5.86454 23.2205 6.0638C23.4395 6.26306 23.7366 6.375 24.0463 6.375H27.2979C27.7975 6.37491 28.2841 6.52058 28.686 6.79061C29.0879 7.06063 29.3841 7.44079 29.531 7.87525L32.9772 18.0625H28.5468C27.6791 18.0623 26.8284 18.2819 26.0902 18.6967C25.3519 19.1116 24.7553 19.7053 24.3671 20.4113L23.9685 21.1381C23.7744 21.4911 23.4761 21.7879 23.107 21.9954C22.7378 22.2028 22.3125 22.3126 21.8786 22.3125H16.8674C16.4334 22.3125 16.0079 22.2025 15.6388 21.9948C15.2697 21.7871 14.9714 21.4899 14.7776 21.1367L14.3789 20.4113C13.9908 19.7053 13.3941 19.1116 12.6559 18.6967C11.9176 18.2819 11.067 18.0623 10.1993 18.0625H5.77199L9.21819 7.87525Z" fill="#3D3D3D"/>
<path fill-rule="evenodd" clip-rule="evenodd" d="M19.375 3.1875C19.6848 3.1875 19.9818 3.29944 20.2009 3.4987C20.4199 3.69796 20.543 3.96821 20.543 4.25V13.3733L23.2214 10.9367C23.3284 10.8323 23.4573 10.7485 23.6006 10.6905C23.7438 10.6324 23.8985 10.6012 24.0553 10.5987C24.2121 10.5961 24.3679 10.6224 24.5133 10.6758C24.6587 10.7293 24.7909 10.8088 24.9018 10.9097C25.0127 11.0106 25.1001 11.1308 25.1588 11.2631C25.2176 11.3954 25.2464 11.5371 25.2437 11.6797C25.2409 11.8224 25.2066 11.9631 25.1427 12.0934C25.0789 12.2238 24.9869 12.3411 24.8721 12.4383L20.2004 16.6883C19.9814 16.8873 19.6845 16.9991 19.375 16.9991C19.0655 16.9991 18.7687 16.8873 18.5497 16.6883L13.8779 12.4383C13.6716 12.2369 13.5593 11.9705 13.5646 11.6953C13.57 11.42 13.6925 11.1574 13.9065 10.9627C14.1205 10.768 14.4092 10.6565 14.7118 10.6517C15.0144 10.6468 15.3072 10.749 15.5286 10.9367L18.2071 13.3733V4.25C18.2071 3.96821 18.3301 3.69796 18.5492 3.4987C18.7682 3.29944 19.0653 3.1875 19.375 3.1875Z" fill="#3D3D3D"/>
</svg>
