<svg width="34" height="34" viewBox="0 0 34 34" fill="none" xmlns="http://www.w3.org/2000/svg">
<path fill-rule="evenodd" clip-rule="evenodd" d="M7.43834 12.75C7.43834 10.2139 8.44581 7.78161 10.2391 5.98829C12.0324 4.19497 14.4647 3.1875 17.0008 3.1875C19.537 3.1875 21.9692 4.19497 23.7625 5.98829C25.5559 7.78161 26.5633 10.2139 26.5633 12.75V13.8125C26.5633 16.8201 27.6967 19.5599 29.5638 21.6325C29.6801 21.7614 29.7631 21.9168 29.8054 22.0852C29.8478 22.2536 29.8482 22.4298 29.8067 22.5984C29.7652 22.7669 29.683 22.9228 29.5673 23.0522C29.4516 23.1817 29.306 23.2809 29.1431 23.341C26.9558 24.1485 24.6664 24.7435 22.2992 25.1019C22.3525 25.8303 22.255 26.5618 22.0129 27.2508C21.7708 27.9398 21.3892 28.5715 20.892 29.1065C20.3948 29.6414 19.7926 30.068 19.1231 30.3598C18.4536 30.6515 17.7312 30.8021 17.0008 30.8021C16.2705 30.8021 15.5481 30.6515 14.8785 30.3598C14.209 30.068 13.6069 29.6414 13.1097 29.1065C12.6125 28.5715 12.2309 27.9398 11.9888 27.2508C11.7467 26.5618 11.6492 25.8303 11.7025 25.1019C9.36734 24.748 7.07424 24.1576 4.85859 23.3396C4.69586 23.2795 4.55031 23.1805 4.43467 23.0512C4.31902 22.9219 4.23678 22.7663 4.19513 22.5979C4.15349 22.4295 4.15371 22.2535 4.19577 22.0852C4.23783 21.9169 4.32045 21.7615 4.43642 21.6325C6.37273 19.4886 7.4427 16.7014 7.43834 13.8125V12.75ZM13.8162 25.3583C13.798 25.7879 13.867 26.2166 14.0189 26.6188C14.1707 27.021 14.4024 27.3883 14.6999 27.6986C14.9974 28.0089 15.3546 28.2558 15.7501 28.4245C16.1455 28.5932 16.5709 28.6802 17.0008 28.6802C17.4307 28.6802 17.8562 28.5932 18.2516 28.4245C18.647 28.2558 19.0042 28.0089 19.3018 27.6986C19.5993 27.3883 19.8309 27.021 19.9828 26.6188C20.1347 26.2166 20.2036 25.7879 20.1855 25.3583C18.0667 25.5492 15.935 25.5492 13.8162 25.3583Z" fill="#3D3D3D"/>
</svg>
