<svg width="43" height="38" viewBox="0 0 43 38" fill="none" xmlns="http://www.w3.org/2000/svg">
<path fill-rule="evenodd" clip-rule="evenodd" d="M26.063 2.52544C26.3178 2.65447 26.5178 2.85743 26.6311 3.10193C26.7443 3.34644 26.7643 3.6184 26.6878 3.87444L23.2208 15.4375H35.8705C36.1249 15.4375 36.3737 15.5052 36.5864 15.6321C36.7991 15.7591 36.9664 15.9398 37.0677 16.152C37.169 16.3643 37.2 16.5989 37.1567 16.8269C37.1135 17.055 36.9979 17.2666 36.8242 17.4357L18.5494 35.2482C18.3504 35.4426 18.0854 35.5707 17.7969 35.612C17.5084 35.6532 17.213 35.6053 16.958 35.4758C16.703 35.3463 16.5031 35.1427 16.3902 34.8977C16.2774 34.6526 16.2581 34.3802 16.3356 34.124L19.8026 22.5625H7.15292C6.89853 22.5625 6.64969 22.4949 6.43699 22.3679C6.22429 22.241 6.05699 22.0603 5.95567 21.848C5.85435 21.6357 5.82341 21.4011 5.86667 21.1731C5.90992 20.945 6.02548 20.7335 6.19915 20.5644L24.474 2.75185C24.673 2.55813 24.9376 2.43058 25.2256 2.38955C25.5136 2.34852 25.8084 2.39635 26.063 2.52544Z" fill="#3D3D3D"/>
</svg>
