<svg width="16" height="16" viewBox="0 0 16 16" fill="none" xmlns="http://www.w3.org/2000/svg">
<path d="M4.33724 1.33337H11.6706C11.8804 1.33337 12.078 1.43217 12.2039 1.60004L14.0039 4.00004V14C14.0039 14.3682 13.7055 14.6667 13.3373 14.6667H2.67057C2.30239 14.6667 2.00391 14.3682 2.00391 14V4.00004L3.80391 1.60004C3.92981 1.43217 4.12741 1.33337 4.33724 1.33337ZM12.3373 4.00004L11.3373 2.66671H4.67057L3.67057 4.00004H12.3373ZM6.00391 6.66671H4.67057V8.00004C4.67057 9.84097 6.16296 11.3334 8.00392 11.3334C9.84485 11.3334 11.3373 9.84097 11.3373 8.00004V6.66671H10.0039V8.00004C10.0039 9.10464 9.10845 10 8.00392 10C6.89932 10 6.00391 9.10464 6.00391 8.00004V6.66671Z" fill="white"/>
</svg>
